<?xml version="1.0" encoding="UTF-8"?>
<!DOCTYPE svg PUBLIC "-//W3C//DTD SVG 1.1//EN" "http://www.w3.org/Graphics/SVG/1.1/DTD/svg11.dtd">
<svg xmlns="http://www.w3.org/2000/svg" version="1.1" width="259px" height="92px" style="shape-rendering:geometricPrecision; text-rendering:geometricPrecision; image-rendering:optimizeQuality; fill-rule:evenodd; clip-rule:evenodd" xmlns:xlink="http://www.w3.org/1999/xlink">
<g><path style="opacity:0.788" fill="#3eb253" d="M 126.5,2.5 C 127.583,2.53944 128.583,2.87277 129.5,3.5C 130.833,31.8333 130.833,60.1667 129.5,88.5C 127.694,89.8587 126.194,89.5254 125,87.5C 124.833,73.5 124.667,59.5 124.5,45.5C 124.517,30.9454 125.183,16.6121 126.5,2.5 Z"/></g>
<g><path style="opacity:1" fill="#a6977a" d="M 84.5,10.5 C 75.4135,5.64542 65.7468,3.81209 55.5,5C 59.3563,5.1773 63.023,5.6773 66.5,6.5C 60.9738,6.17859 55.6405,6.51192 50.5,7.5C 37.8366,11.32 28.6699,19.32 23,31.5C 22.0467,34.4318 21.5467,37.4318 21.5,40.5C 20.5,40.5 19.5,40.5 18.5,40.5C 19.7396,29.6864 24.4063,20.6864 32.5,13.5C 49.2089,0.10569 66.5423,-0.89431 84.5,10.5 Z"/></g>
<g><path style="opacity:0.631" fill="#5fbc79" d="M 195.5,3.5 C 201.776,4.44545 204.776,8.11211 204.5,14.5C 203.833,14.5 203.167,14.5 202.5,14.5C 202.5,14.1667 202.5,13.8333 202.5,13.5C 202.435,9.89307 200.769,7.55973 197.5,6.5C 196.599,5.70951 195.932,4.70951 195.5,3.5 Z"/></g>
<g><path style="opacity:1" fill="#d2c7ae" d="M 84.5,10.5 C 90.1667,12.8333 94.1667,16.8333 96.5,22.5C 96.8769,24.258 97.5435,25.9246 98.5,27.5C 98.3764,28.1067 98.0431,28.44 97.5,28.5C 92.3023,17.231 83.6357,10.231 71.5,7.5C 70.0813,6.54885 68.4147,6.21552 66.5,6.5C 63.023,5.6773 59.3563,5.1773 55.5,5C 65.7468,3.81209 75.4135,5.64542 84.5,10.5 Z"/></g>
<g><path style="opacity:1" fill="#efebe0" d="M 41.5,12.5 C 41.8333,12.5 42.1667,12.5 42.5,12.5C 44.0481,12.8212 44.7148,13.8212 44.5,15.5C 43.5,15.5 42.5,15.5 41.5,15.5C 41.5,14.5 41.5,13.5 41.5,12.5 Z"/></g>
<g><path style="opacity:0.675" fill="#f6f5ec" d="M 110.5,43.5 C 109.833,43.1667 109.167,42.8333 108.5,42.5C 107.432,41.5655 106.099,41.2322 104.5,41.5C 104.5,40.8333 104.167,40.5 103.5,40.5C 103.358,33.5635 101.024,27.5635 96.5,22.5C 94.1667,16.8333 90.1667,12.8333 84.5,10.5C 66.5423,-0.89431 49.2089,0.10569 32.5,13.5C 31.8333,13.5 31.1667,13.5 30.5,13.5C 44.125,1.24009 59.7917,-1.92658 77.5,4C 93.8822,10.8684 103.215,23.035 105.5,40.5C 108.285,39.9162 109.952,40.9162 110.5,43.5 Z"/></g>
<g><path style="opacity:1" fill="#2d3c2f" d="M 50.5,7.5 C 55.6405,6.51192 60.9738,6.17859 66.5,6.5C 68.4147,6.21552 70.0813,6.54885 71.5,7.5C 70.7611,7.36899 70.0944,7.53566 69.5,8C 71.3146,8.75684 72.9812,9.59018 74.5,10.5C 72.8333,10.5 71.1667,10.5 69.5,10.5C 63.8059,7.89476 58.1392,7.89476 52.5,10.5C 51.1667,10.5 49.8333,10.5 48.5,10.5C 49.8083,9.7677 51.1416,8.93436 52.5,8C 51.9056,7.53566 51.2389,7.36899 50.5,7.5 Z"/></g>
<g><path style="opacity:1" fill="#5d8f74" d="M 48.5,10.5 C 49.8333,10.5 51.1667,10.5 52.5,10.5C 50.6764,13.8462 50.0097,17.5128 50.5,21.5C 50.1667,21.5 49.8333,21.5 49.5,21.5C 49.6602,19.8008 49.4935,18.1341 49,16.5C 46.7604,19.2932 45.2604,18.9599 44.5,15.5C 44.7148,13.8212 44.0481,12.8212 42.5,12.5C 44.1016,10.9261 46.1016,10.2594 48.5,10.5 Z"/></g>
<g><path style="opacity:1" fill="#181d14" d="M 71.5,7.5 C 83.6357,10.231 92.3023,17.231 97.5,28.5C 97.5,28.8333 97.5,29.1667 97.5,29.5C 96.8333,29.1667 96.1667,28.8333 95.5,28.5C 94.791,27.596 93.791,27.2627 92.5,27.5C 91.9801,21.659 88.9801,17.9924 83.5,16.5C 82.316,14.5901 80.816,14.2568 79,15.5C 77.9914,13.9751 77.4914,12.3084 77.5,10.5C 76.5,10.5 75.5,10.5 74.5,10.5C 72.9812,9.59018 71.3146,8.75684 69.5,8C 70.0944,7.53566 70.7611,7.36899 71.5,7.5 Z"/></g>
<g><path style="opacity:1" fill="#f3faf1" d="M 187.5,15.5 C 185.847,15.6596 184.514,16.3263 183.5,17.5C 181.1,19.2964 179.433,21.6298 178.5,24.5C 177.801,31.442 180.468,36.442 186.5,39.5C 183.781,39.6025 181.115,39.2692 178.5,38.5C 176.829,38.6682 175.496,39.3349 174.5,40.5C 173.876,40.0831 173.543,39.4164 173.5,38.5C 174.574,30.203 175.241,21.8697 175.5,13.5C 179.705,13.7167 183.705,14.3833 187.5,15.5 Z"/></g>
<g><path style="opacity:1" fill="#7ca58c" d="M 69.5,10.5 C 71.1667,10.5 72.8333,10.5 74.5,10.5C 75.5,10.5 76.5,10.5 77.5,10.5C 77.4914,12.3084 77.9914,13.9751 79,15.5C 80.816,14.2568 82.316,14.5901 83.5,16.5C 83.7678,18.099 83.4345,19.4324 82.5,20.5C 81.8386,19.2825 81.1719,17.9492 80.5,16.5C 79.269,17.6507 79.269,18.8173 80.5,20C 78.5911,20.4479 77.4244,19.6145 77,17.5C 76.51,18.7932 76.3433,20.1266 76.5,21.5C 75.1667,21.5 73.8333,21.5 72.5,21.5C 73.1925,17.2473 72.1925,13.5807 69.5,10.5 Z"/></g>
<g><path style="opacity:1" fill="#151912" d="M 50.5,7.5 C 51.2389,7.36899 51.9056,7.53566 52.5,8C 51.1416,8.93436 49.8083,9.7677 48.5,10.5C 46.1016,10.2594 44.1016,10.9261 42.5,12.5C 42.1667,12.5 41.8333,12.5 41.5,12.5C 30.6289,18.6549 24.6289,27.6549 23.5,39.5C 23.1583,40.3382 22.4916,40.6716 21.5,40.5C 21.5467,37.4318 22.0467,34.4318 23,31.5C 28.6699,19.32 37.8366,11.32 50.5,7.5 Z"/></g>
<g><path style="opacity:1" fill="#f5faf4" d="M 197.5,17.5 C 198.919,16.5489 200.585,16.2155 202.5,16.5C 203.833,16.5 205.167,16.5 206.5,16.5C 205.687,24.8208 205.02,33.1541 204.5,41.5C 199.99,41.1156 195.657,40.4489 191.5,39.5C 199.645,38.3552 203.311,33.6885 202.5,25.5C 202.445,22.3855 201.112,20.0522 198.5,18.5C 198.5,17.8333 198.167,17.5 197.5,17.5 Z"/></g>
<g><path style="opacity:1" fill="#76705b" d="M 69.5,14.5 C 70.1667,17.5 70.8333,20.5 71.5,23.5C 72.1667,23.5 72.5,23.8333 72.5,24.5C 70.183,25.5345 69.183,24.5345 69.5,21.5C 69.5,19.1667 69.5,16.8333 69.5,14.5 Z"/></g>
<g><path style="opacity:1" fill="#39b05c" d="M 187.5,15.5 C 191.162,15.0339 194.495,15.7006 197.5,17.5C 198.167,17.5 198.5,17.8333 198.5,18.5C 197.178,18.33 196.011,18.6634 195,19.5C 194.115,22 192.948,24.3333 191.5,26.5C 192.32,28.1112 193.654,28.7778 195.5,28.5C 195.116,30.6648 195.783,32.3315 197.5,33.5C 199.047,30.6822 200.714,28.0156 202.5,25.5C 203.311,33.6885 199.645,38.3552 191.5,39.5C 189.833,39.5 188.167,39.5 186.5,39.5C 180.468,36.442 177.801,31.442 178.5,24.5C 181.631,25.0656 184.464,24.0656 187,21.5C 187.065,19.1167 187.898,18.45 189.5,19.5C 190.5,19 191.5,18.5 192.5,18C 190.899,17.7266 189.399,17.2266 188,16.5C 187,18.1667 186,19.8333 185,21.5C 184.383,20.5509 184.549,19.7175 185.5,19C 184.584,18.7216 183.918,18.2216 183.5,17.5C 184.514,16.3263 185.847,15.6596 187.5,15.5 Z"/></g>
<g><path style="opacity:1" fill="#95cc71" d="M 178.5,24.5 C 179.433,21.6298 181.1,19.2964 183.5,17.5C 183.918,18.2216 184.584,18.7216 185.5,19C 184.549,19.7175 184.383,20.5509 185,21.5C 186,19.8333 187,18.1667 188,16.5C 189.399,17.2266 190.899,17.7266 192.5,18C 191.5,18.5 190.5,19 189.5,19.5C 187.898,18.45 187.065,19.1167 187,21.5C 184.464,24.0656 181.631,25.0656 178.5,24.5 Z"/></g>
<g><path style="opacity:1" fill="#49896c" d="M 45.5,21.5 C 45.5,22.1667 45.5,22.8333 45.5,23.5C 43.8958,24.287 43.2291,25.6203 43.5,27.5C 42.8501,27.8039 42.1835,28.1373 41.5,28.5C 40.8313,26.3691 40.1646,24.3691 39.5,22.5C 39.44,21.9569 39.1067,21.6236 38.5,21.5C 37.1401,22.1799 35.8068,22.8466 34.5,23.5C 34.5,22.1667 34.5,20.8333 34.5,19.5C 37.7766,19.7839 40.9433,19.4505 44,18.5C 45.0386,19.2438 45.5386,20.2438 45.5,21.5 Z"/></g>
<g><path style="opacity:1" fill="#1c3929" d="M 82.5,20.5 C 81.4479,22.256 79.7812,22.9227 77.5,22.5C 77.3253,24.6208 77.6586,26.6208 78.5,28.5C 76.6565,26.7211 75.9898,24.3878 76.5,21.5C 76.3433,20.1266 76.51,18.7932 77,17.5C 77.4244,19.6145 78.5911,20.4479 80.5,20C 79.269,18.8173 79.269,17.6507 80.5,16.5C 81.1719,17.9492 81.8386,19.2825 82.5,20.5 Z"/></g>
<g><path style="opacity:1" fill="#e4ebc7" d="M 39.5,22.5 C 39.5674,23.9587 39.2341,25.2921 38.5,26.5C 37.8485,25.9094 37.1818,25.2427 36.5,24.5C 34.8211,26.1045 32.8211,26.7711 30.5,26.5C 31.4363,25.0256 32.7697,24.0256 34.5,23.5C 35.8068,22.8466 37.1401,22.1799 38.5,21.5C 39.1067,21.6236 39.44,21.9569 39.5,22.5 Z"/></g>
<g><path style="opacity:1" fill="#eae3cb" d="M 53.5,21.5 C 57.8333,21.5 62.1667,21.5 66.5,21.5C 67.1667,21.5 67.8333,21.5 68.5,21.5C 68.8333,21.5 69.1667,21.5 69.5,21.5C 69.183,24.5345 70.183,25.5345 72.5,24.5C 73.4861,28.97 73.8195,33.6367 73.5,38.5C 71.712,38.7852 70.0453,38.4519 68.5,37.5C 69.7349,35.6837 69.7349,34.017 68.5,32.5C 68.573,30.9731 67.9063,29.9731 66.5,29.5C 66.1667,28.8333 65.8333,28.1667 65.5,27.5C 64.5081,25.9735 63.0081,25.3068 61,25.5C 58.3454,25.124 56.512,26.124 55.5,28.5C 54.2426,29.6226 54.5759,30.2893 56.5,30.5C 57.1098,31.391 57.4431,32.391 57.5,33.5C 54.8326,36.3548 53.1659,35.6881 52.5,31.5C 51.4808,33.4595 51.4808,35.4595 52.5,37.5C 51.4324,38.4345 50.099,38.7678 48.5,38.5C 48.3341,33.4889 48.5007,28.4889 49,23.5C 51.8692,26.3185 53.3692,25.6518 53.5,21.5 Z"/></g>
<g><path style="opacity:1" fill="#97cc70" d="M 198.5,18.5 C 201.112,20.0522 202.445,22.3855 202.5,25.5C 200.714,28.0156 199.047,30.6822 197.5,33.5C 195.783,32.3315 195.116,30.6648 195.5,28.5C 193.654,28.7778 192.32,28.1112 191.5,26.5C 192.948,24.3333 194.115,22 195,19.5C 196.011,18.6634 197.178,18.33 198.5,18.5 Z"/></g>
<g><path style="opacity:1" fill="#857b66" d="M 65.5,27.5 C 64.8333,27.8333 64.1667,28.1667 63.5,28.5C 63.2089,27.3509 62.3756,26.6842 61,26.5C 59.3009,26.3866 58.1342,27.0532 57.5,28.5C 57.0623,29.5063 56.3957,29.5063 55.5,28.5C 56.512,26.124 58.3454,25.124 61,25.5C 63.0081,25.3068 64.5081,25.9735 65.5,27.5 Z"/></g>
<g><path style="opacity:1" fill="#2a4e3c" d="M 41.5,12.5 C 41.5,13.5 41.5,14.5 41.5,15.5C 42.5,15.5 43.5,15.5 44.5,15.5C 45.2604,18.9599 46.7604,19.2932 49,16.5C 49.4935,18.1341 49.6602,19.8008 49.5,21.5C 48.1667,21.5 46.8333,21.5 45.5,21.5C 45.5386,20.2438 45.0386,19.2438 44,18.5C 40.9433,19.4505 37.7766,19.7839 34.5,19.5C 34.5,20.8333 34.5,22.1667 34.5,23.5C 32.7697,24.0256 31.4363,25.0256 30.5,26.5C 27.6781,27.7892 27.0114,29.7892 28.5,32.5C 30.4829,31.018 32.3163,29.3513 34,27.5C 34.5074,28.9961 34.0074,30.1627 32.5,31C 33.3081,31.3076 33.9747,31.8076 34.5,32.5C 32.0312,33.1681 29.6979,33.8347 27.5,34.5C 26.1667,36.1667 24.8333,37.8333 23.5,39.5C 24.6289,27.6549 30.6289,18.6549 41.5,12.5 Z"/></g>
<g><path style="opacity:1" fill="#559377" d="M 83.5,16.5 C 88.9801,17.9924 91.9801,21.659 92.5,27.5C 93.791,27.2627 94.791,27.596 95.5,28.5C 92.8333,28.5 90.1667,28.5 87.5,28.5C 86.1411,29.0065 85.1411,30.0065 84.5,31.5C 83.7087,30.9344 83.7087,30.101 84.5,29C 82.3751,25.586 80.7084,25.7527 79.5,29.5C 78.8333,29.5 78.5,29.1667 78.5,28.5C 77.6586,26.6208 77.3253,24.6208 77.5,22.5C 79.7812,22.9227 81.4479,22.256 82.5,20.5C 83.4345,19.4324 83.7678,18.099 83.5,16.5 Z"/></g>
<g><path style="opacity:1" fill="#f3f0e1" d="M 63.5,28.5 C 61.5,28.5 59.5,28.5 57.5,28.5C 58.1342,27.0532 59.3009,26.3866 61,26.5C 62.3756,26.6842 63.2089,27.3509 63.5,28.5 Z"/></g>
<g><path style="opacity:1" fill="#99cd70" d="M 183.5,27.5 C 186.127,27.2933 187.793,28.46 188.5,31C 187.409,32.7623 186.409,34.5956 185.5,36.5C 184.322,33.6092 183.655,30.6092 183.5,27.5 Z"/></g>
<g><path style="opacity:1" fill="#e3ddc6" d="M 30.5,13.5 C 31.1667,13.5 31.8333,13.5 32.5,13.5C 24.4063,20.6864 19.7396,29.6864 18.5,40.5C 17.8333,40.5 17.5,40.8333 17.5,41.5C 15.901,41.2322 14.5676,41.5655 13.5,42.5C 12.8333,42.5 12.5,42.8333 12.5,43.5C 12.1667,43.5 11.8333,43.5 11.5,43.5C 12.0483,40.9162 13.715,39.9162 16.5,40.5C 17.769,29.6254 22.4357,20.6254 30.5,13.5 Z"/></g>
<g><path style="opacity:1" fill="#a5bf7b" d="M 38.5,26.5 C 38.634,28.2915 38.3007,29.9582 37.5,31.5C 35.5749,35.0076 32.5749,36.341 28.5,35.5C 28.5,34.8333 28.1667,34.5 27.5,34.5C 29.6979,33.8347 32.0312,33.1681 34.5,32.5C 33.9747,31.8076 33.3081,31.3076 32.5,31C 34.0074,30.1627 34.5074,28.9961 34,27.5C 32.3163,29.3513 30.4829,31.018 28.5,32.5C 27.0114,29.7892 27.6781,27.7892 30.5,26.5C 32.8211,26.7711 34.8211,26.1045 36.5,24.5C 37.1818,25.2427 37.8485,25.9094 38.5,26.5 Z"/></g>
<g><path style="opacity:1" fill="#183126" d="M 45.5,23.5 C 45.4676,29.1886 45.1342,34.8552 44.5,40.5C 43.1667,40.5 41.8333,40.5 40.5,40.5C 40.2178,39.2223 39.5511,38.2223 38.5,37.5C 40.0269,37.573 41.0269,36.9063 41.5,35.5C 43.2018,33.1998 43.8685,30.5331 43.5,27.5C 43.2291,25.6203 43.8958,24.287 45.5,23.5 Z"/></g>
<g><path style="opacity:1" fill="#33664f" d="M 39.5,22.5 C 40.1646,24.3691 40.8313,26.3691 41.5,28.5C 42.1835,28.1373 42.8501,27.8039 43.5,27.5C 43.8685,30.5331 43.2018,33.1998 41.5,35.5C 40.2921,34.7659 38.9587,34.4326 37.5,34.5C 38.625,33.3478 38.625,32.3478 37.5,31.5C 38.3007,29.9582 38.634,28.2915 38.5,26.5C 39.2341,25.2921 39.5674,23.9587 39.5,22.5 Z"/></g>
<g><path style="opacity:1" fill="#b0a991" d="M 52.5,15.5 C 52.2053,17.7354 52.5386,19.7354 53.5,21.5C 53.3692,25.6518 51.8692,26.3185 49,23.5C 48.5007,28.4889 48.3341,33.4889 48.5,38.5C 50.099,38.7678 51.4324,38.4345 52.5,37.5C 53.404,38.209 53.7373,39.209 53.5,40.5C 50.5,40.5 47.5,40.5 44.5,40.5C 45.1342,34.8552 45.4676,29.1886 45.5,23.5C 45.5,22.8333 45.5,22.1667 45.5,21.5C 46.8333,21.5 48.1667,21.5 49.5,21.5C 49.8333,21.5 50.1667,21.5 50.5,21.5C 51.1667,19.5 51.8333,17.5 52.5,15.5 Z"/></g>
<g><path style="opacity:1" fill="#141914" d="M 65.5,27.5 C 65.8333,28.1667 66.1667,28.8333 66.5,29.5C 63.2139,30.2071 59.8806,30.5405 56.5,30.5C 54.5759,30.2893 54.2426,29.6226 55.5,28.5C 56.3957,29.5063 57.0623,29.5063 57.5,28.5C 59.5,28.5 61.5,28.5 63.5,28.5C 64.1667,28.1667 64.8333,27.8333 65.5,27.5 Z"/></g>
<g><path style="opacity:1" fill="#bbd18e" d="M 87.5,28.5 C 90.1667,28.5 92.8333,28.5 95.5,28.5C 96.1667,28.8333 96.8333,29.1667 97.5,29.5C 97.3284,30.4916 97.6618,31.1583 98.5,31.5C 98.8432,33.4832 98.1765,34.8166 96.5,35.5C 96.8333,36.1667 97.1667,36.8333 97.5,37.5C 97.1667,37.5 96.8333,37.5 96.5,37.5C 91.9964,37.333 89.3297,34.9996 88.5,30.5C 88.1667,29.8333 87.8333,29.1667 87.5,28.5 Z"/></g>
<g><path style="opacity:1" fill="#2d553c" d="M 87.5,28.5 C 87.8333,29.1667 88.1667,29.8333 88.5,30.5C 87.6236,30.3691 86.9569,30.7025 86.5,31.5C 87.8069,32.865 87.8069,34.1984 86.5,35.5C 84.4336,33.2834 82.1002,31.2834 79.5,29.5C 80.7084,25.7527 82.3751,25.586 84.5,29C 83.7087,30.101 83.7087,30.9344 84.5,31.5C 85.1411,30.0065 86.1411,29.0065 87.5,28.5 Z"/></g>
<g><path style="opacity:1" fill="#3e5130" d="M 96.5,35.5 C 94.9142,34.8519 93.2475,34.3519 91.5,34C 93.8912,33.3086 93.8912,32.3086 91.5,31C 94.5062,30.8323 96.1728,32.3323 96.5,35.5 Z"/></g>
<g><path style="opacity:1" fill="#f4f1d8" d="M 67.5,32.5 C 67.6602,34.1992 67.4935,35.8659 67,37.5C 66.7679,36.2625 66.2679,35.2625 65.5,34.5C 62.8753,33.198 62.8753,31.8647 65.5,30.5C 66.5223,30.8555 67.189,31.5222 67.5,32.5 Z"/></g>
<g><path style="opacity:1" fill="#0d170e" d="M 88.5,30.5 C 89.3297,34.9996 91.9964,37.333 96.5,37.5C 96.8039,38.1499 97.1373,38.8165 97.5,39.5C 94.463,40.7412 91.463,40.7412 88.5,39.5C 88.2671,37.9382 87.6005,36.6049 86.5,35.5C 87.8069,34.1984 87.8069,32.865 86.5,31.5C 86.9569,30.7025 87.6236,30.3691 88.5,30.5 Z"/></g>
<g><path style="opacity:1" fill="#9f9274" d="M 96.5,22.5 C 101.024,27.5635 103.358,33.5635 103.5,40.5C 102.833,40.5 102.167,40.5 101.5,40.5C 100.946,37.2542 99.9459,34.2542 98.5,31.5C 97.6618,31.1583 97.3284,30.4916 97.5,29.5C 97.5,29.1667 97.5,28.8333 97.5,28.5C 98.0431,28.44 98.3764,28.1067 98.5,27.5C 97.5435,25.9246 96.8769,24.258 96.5,22.5 Z"/></g>
<g><path style="opacity:1" fill="#33644c" d="M 66.5,29.5 C 67.9063,29.9731 68.573,30.9731 68.5,32.5C 68.1667,32.5 67.8333,32.5 67.5,32.5C 67.189,31.5222 66.5223,30.8555 65.5,30.5C 62.8753,31.8647 62.8753,33.198 65.5,34.5C 65.5,35.8333 65.5,37.1667 65.5,38.5C 61.8333,38.5 58.1667,38.5 54.5,38.5C 55.925,37.078 56.925,35.4113 57.5,33.5C 57.4431,32.391 57.1098,31.391 56.5,30.5C 59.8806,30.5405 63.2139,30.2071 66.5,29.5 Z"/></g>
<g><path style="opacity:1" fill="#3e3e33" d="M 57.5,33.5 C 56.925,35.4113 55.925,37.078 54.5,38.5C 54.8333,39.1667 55.1667,39.8333 55.5,40.5C 54.8333,40.5 54.1667,40.5 53.5,40.5C 53.7373,39.209 53.404,38.209 52.5,37.5C 51.4808,35.4595 51.4808,33.4595 52.5,31.5C 53.1659,35.6881 54.8326,36.3548 57.5,33.5 Z"/></g>
<g><path style="opacity:1" fill="#eeebdd" d="M 69.5,10.5 C 72.1925,13.5807 73.1925,17.2473 72.5,21.5C 73.8333,21.5 75.1667,21.5 76.5,21.5C 75.9898,24.3878 76.6565,26.7211 78.5,28.5C 78.5,29.1667 78.8333,29.5 79.5,29.5C 82.1002,31.2834 84.4336,33.2834 86.5,35.5C 87.6005,36.6049 88.2671,37.9382 88.5,39.5C 86.7354,40.4614 84.7354,40.7947 82.5,40.5C 81.2112,39.3634 80.2112,38.0301 79.5,36.5C 80.4916,36.6716 81.1583,36.3382 81.5,35.5C 81.9382,35.5654 82.2716,35.3988 82.5,35C 80.6667,33.1667 78.8333,31.3333 77,29.5C 76.5357,30.0944 76.369,30.7611 76.5,31.5C 76.8016,34.0593 76.4682,36.3926 75.5,38.5C 75.6079,33.1301 75.2745,27.7968 74.5,22.5C 73.209,22.2627 72.209,22.596 71.5,23.5C 70.8333,20.5 70.1667,17.5 69.5,14.5C 67.299,11.6448 64.299,10.3115 60.5,10.5C 56.4842,10.1674 53.8175,11.834 52.5,15.5C 51.8333,17.5 51.1667,19.5 50.5,21.5C 50.0097,17.5128 50.6764,13.8462 52.5,10.5C 58.1392,7.89476 63.8059,7.89476 69.5,10.5 Z"/></g>
<g><path style="opacity:1" fill="#3e5c3c" d="M 81.5,35.5 C 79.8333,34.1667 78.1667,32.8333 76.5,31.5C 76.369,30.7611 76.5357,30.0944 77,29.5C 78.8333,31.3333 80.6667,33.1667 82.5,35C 82.2716,35.3988 81.9382,35.5654 81.5,35.5 Z"/></g>
<g><path style="opacity:1" fill="#1c2619" d="M 69.5,14.5 C 69.5,16.8333 69.5,19.1667 69.5,21.5C 69.1667,21.5 68.8333,21.5 68.5,21.5C 65.9741,14.5009 61.6408,12.8343 55.5,16.5C 53.744,17.5521 53.0773,19.2188 53.5,21.5C 52.5386,19.7354 52.2053,17.7354 52.5,15.5C 53.8175,11.834 56.4842,10.1674 60.5,10.5C 64.299,10.3115 67.299,11.6448 69.5,14.5 Z"/></g>
<g><path style="opacity:1" fill="#589378" d="M 55.5,16.5 C 58.1667,16.5 60.8333,16.5 63.5,16.5C 63.31,18.9589 64.31,20.6255 66.5,21.5C 62.1667,21.5 57.8333,21.5 53.5,21.5C 53.0773,19.2188 53.744,17.5521 55.5,16.5 Z"/></g>
<g><path style="opacity:1" fill="#3a6751" d="M 68.5,21.5 C 67.8333,21.5 67.1667,21.5 66.5,21.5C 64.31,20.6255 63.31,18.9589 63.5,16.5C 60.8333,16.5 58.1667,16.5 55.5,16.5C 61.6408,12.8343 65.9741,14.5009 68.5,21.5 Z"/></g>
<g><path style="opacity:1" fill="#0b1813" d="M 37.5,31.5 C 38.625,32.3478 38.625,33.3478 37.5,34.5C 37.2627,35.791 37.596,36.791 38.5,37.5C 39.5511,38.2223 40.2178,39.2223 40.5,40.5C 35.456,40.8275 30.456,40.4941 25.5,39.5C 26.5207,38.0986 27.5207,36.7653 28.5,35.5C 32.5749,36.341 35.5749,35.0076 37.5,31.5 Z"/></g>
<g><path style="opacity:1" fill="#1b2218" d="M 98.5,31.5 C 99.9459,34.2542 100.946,37.2542 101.5,40.5C 100.5,40.5 99.5,40.5 98.5,40.5C 98.7373,39.209 98.404,38.209 97.5,37.5C 97.1667,36.8333 96.8333,36.1667 96.5,35.5C 98.1765,34.8166 98.8432,33.4832 98.5,31.5 Z"/></g>
<g><path style="opacity:0.843" fill="#87c761" d="M 195.5,3.5 C 195.932,4.70951 196.599,5.70951 197.5,6.5C 198.939,8.58805 199.606,10.9214 199.5,13.5C 200.5,13.5 201.5,13.5 202.5,13.5C 202.5,13.8333 202.5,14.1667 202.5,14.5C 200.473,14.3379 198.473,14.5045 196.5,15C 198.708,15.1909 200.708,15.6909 202.5,16.5C 200.585,16.2155 198.919,16.5489 197.5,17.5C 194.495,15.7006 191.162,15.0339 187.5,15.5C 183.705,14.3833 179.705,13.7167 175.5,13.5C 175.241,21.8697 174.574,30.203 173.5,38.5C 173.543,39.4164 173.876,40.0831 174.5,40.5C 173.434,41.6921 172.601,41.3588 172,39.5C 171.537,43.8376 171.037,48.1709 170.5,52.5C 170.615,55.0165 171.615,57.0165 173.5,58.5C 172.132,59.5937 170.965,59.2603 170,57.5C 169.517,58.448 169.351,59.448 169.5,60.5C 168.861,59.9032 168.528,59.0698 168.5,58C 170.643,42.2122 172.31,26.3789 173.5,10.5C 176.527,11.5089 179.527,11.5089 182.5,10.5C 184.331,3.31083 188.664,0.977492 195.5,3.5 Z M 194.5,6.5 C 195.868,8.41813 196.868,10.5848 197.5,13C 194.553,12.8481 191.553,12.6815 188.5,12.5C 189.19,9.14354 191.19,7.14354 194.5,6.5 Z M 191.5,4.5 C 188.851,6.44702 187.184,9.11368 186.5,12.5C 185.711,12.2172 185.044,11.7172 184.5,11C 185.454,7.20827 187.787,5.04161 191.5,4.5 Z"/></g>
<g><path style="opacity:0.741" fill="#60bd7b" d="M 191.5,4.5 C 193.027,4.42702 194.027,5.09368 194.5,6.5C 191.19,7.14354 189.19,9.14354 188.5,12.5C 187.833,12.5 187.167,12.5 186.5,12.5C 187.184,9.11368 188.851,6.44702 191.5,4.5 Z"/></g>
<g><path style="opacity:1" fill="#afa58c" d="M 71.5,23.5 C 72.209,22.596 73.209,22.2627 74.5,22.5C 75.2745,27.7968 75.6079,33.1301 75.5,38.5C 75.6107,39.1174 75.944,39.6174 76.5,40C 69.5079,40.4996 62.5079,40.6663 55.5,40.5C 55.1667,39.8333 54.8333,39.1667 54.5,38.5C 58.1667,38.5 61.8333,38.5 65.5,38.5C 65.5,37.1667 65.5,35.8333 65.5,34.5C 66.2679,35.2625 66.7679,36.2625 67,37.5C 67.4935,35.8659 67.6602,34.1992 67.5,32.5C 67.8333,32.5 68.1667,32.5 68.5,32.5C 69.7349,34.017 69.7349,35.6837 68.5,37.5C 70.0453,38.4519 71.712,38.7852 73.5,38.5C 73.8195,33.6367 73.4861,28.97 72.5,24.5C 72.5,23.8333 72.1667,23.5 71.5,23.5 Z"/></g>
<g><path style="opacity:1" fill="#436648" d="M 79.5,36.5 C 80.2112,38.0301 81.2112,39.3634 82.5,40.5C 80.8333,40.5 79.1667,40.5 77.5,40.5C 77.1568,38.5168 77.8235,37.1834 79.5,36.5 Z"/></g>
<g><path style="opacity:1" fill="#9dbfa1" d="M 76.5,31.5 C 78.1667,32.8333 79.8333,34.1667 81.5,35.5C 81.1583,36.3382 80.4916,36.6716 79.5,36.5C 77.8235,37.1834 77.1568,38.5168 77.5,40.5C 79.1667,40.5 80.8333,40.5 82.5,40.5C 84.7354,40.7947 86.7354,40.4614 88.5,39.5C 91.463,40.7412 94.463,40.7412 97.5,39.5C 97.1373,38.8165 96.8039,38.1499 96.5,37.5C 96.8333,37.5 97.1667,37.5 97.5,37.5C 98.404,38.209 98.7373,39.209 98.5,40.5C 99.5,40.5 100.5,40.5 101.5,40.5C 102.167,40.5 102.833,40.5 103.5,40.5C 104.167,40.5 104.5,40.8333 104.5,41.5C 78.1667,41.5 51.8333,41.5 25.5,41.5C 22.8333,41.5 20.1667,41.5 17.5,41.5C 17.5,40.8333 17.8333,40.5 18.5,40.5C 19.5,40.5 20.5,40.5 21.5,40.5C 22.4916,40.6716 23.1583,40.3382 23.5,39.5C 24.8333,37.8333 26.1667,36.1667 27.5,34.5C 28.1667,34.5 28.5,34.8333 28.5,35.5C 27.5207,36.7653 26.5207,38.0986 25.5,39.5C 30.456,40.4941 35.456,40.8275 40.5,40.5C 41.8333,40.5 43.1667,40.5 44.5,40.5C 47.5,40.5 50.5,40.5 53.5,40.5C 54.1667,40.5 54.8333,40.5 55.5,40.5C 62.5079,40.6663 69.5079,40.4996 76.5,40C 75.944,39.6174 75.6107,39.1174 75.5,38.5C 76.4682,36.3926 76.8016,34.0593 76.5,31.5 Z"/></g>
<g><path style="opacity:1" fill="#e5dfc3" d="M 37.5,34.5 C 38.9587,34.4326 40.2921,34.7659 41.5,35.5C 41.0269,36.9063 40.0269,37.573 38.5,37.5C 37.596,36.791 37.2627,35.791 37.5,34.5 Z"/></g>
<g><path style="opacity:1" fill="#71bb8a" d="M 25.5,41.5 C 51.8333,41.5 78.1667,41.5 104.5,41.5C 106.099,41.2322 107.432,41.5655 108.5,42.5C 93.1312,42.214 77.7979,42.5474 62.5,43.5C 50.1667,42.8333 37.8333,42.1667 25.5,41.5 Z"/></g>
<g><path style="opacity:1" fill="#7bc24e" d="M 202.5,14.5 C 203.167,14.5 203.833,14.5 204.5,14.5C 205.833,14.5 207.167,14.5 208.5,14.5C 207.002,31.1516 205.669,47.8183 204.5,64.5C 192.628,63.7369 180.961,62.4036 169.5,60.5C 169.351,59.448 169.517,58.448 170,57.5C 170.965,59.2603 172.132,59.5937 173.5,58.5C 171.615,57.0165 170.615,55.0165 170.5,52.5C 171.037,48.1709 171.537,43.8376 172,39.5C 172.601,41.3588 173.434,41.6921 174.5,40.5C 175.496,39.3349 176.829,38.6682 178.5,38.5C 181.115,39.2692 183.781,39.6025 186.5,39.5C 188.167,39.5 189.833,39.5 191.5,39.5C 195.657,40.4489 199.99,41.1156 204.5,41.5C 205.02,33.1541 205.687,24.8208 206.5,16.5C 205.167,16.5 203.833,16.5 202.5,16.5C 200.708,15.6909 198.708,15.1909 196.5,15C 198.473,14.5045 200.473,14.3379 202.5,14.5 Z"/></g>
<g><path style="opacity:1" fill="#f1f8ec" d="M 175.5,42.5 C 184.85,42.9464 194.183,43.613 203.5,44.5C 203.084,49.4932 202.751,54.4932 202.5,59.5C 193.815,58.924 185.148,58.0907 176.5,57C 176,56.5 175.5,56 175,55.5C 174.232,51.0804 174.398,46.7471 175.5,42.5 Z"/></g>
<g><path style="opacity:0.999" fill="#44b364" d="M 208.5,14.5 C 209.302,15.9516 209.802,17.6183 210,19.5C 210.234,32.3499 210.734,45.1832 211.5,58C 210.518,61.5113 208.184,63.678 204.5,64.5C 205.669,47.8183 207.002,31.1516 208.5,14.5 Z"/></g>
<g><path style="opacity:1" fill="#316347" d="M 13.5,42.5 C 19.6313,42.3793 25.6313,43.046 31.5,44.5C 30.0698,48.3544 28.4031,52.0211 26.5,55.5C 26.5,55.1667 26.5,54.8333 26.5,54.5C 25.7655,51.7279 25.5988,49.0613 26,46.5C 23.5185,44.6863 20.6852,44.0196 17.5,44.5C 17.5,48.5 17.5,52.5 17.5,56.5C 19.5,56.5 21.5,56.5 23.5,56.5C 21.3926,57.4682 19.0593,57.8016 16.5,57.5C 16.6653,53.8183 16.4986,50.1516 16,46.5C 14.5529,51.3185 13.7196,56.3185 13.5,61.5C 12.5104,55.69 12.1771,49.69 12.5,43.5C 12.5,42.8333 12.8333,42.5 13.5,42.5 Z"/></g>
<g><path style="opacity:1" fill="#4c9169" d="M 13.5,42.5 C 14.5676,41.5655 15.901,41.2322 17.5,41.5C 20.1667,41.5 22.8333,41.5 25.5,41.5C 37.8333,42.1667 50.1667,42.8333 62.5,43.5C 55.1594,44.5959 47.8261,44.7626 40.5,44C 38.1853,45.1094 36.6853,46.9427 36,49.5C 35.3333,48.1667 34.6667,46.8333 34,45.5C 33.6012,45.7284 33.4346,46.0618 33.5,46.5C 32.8333,45.8333 32.1667,45.1667 31.5,44.5C 25.6313,43.046 19.6313,42.3793 13.5,42.5 Z"/></g>
<g><path style="opacity:1" fill="#4c8162" d="M 108.5,42.5 C 109.167,42.8333 109.833,43.1667 110.5,43.5C 110.823,49.69 110.49,55.69 109.5,61.5C 109.665,57.8183 109.499,54.1516 109,50.5C 108.963,48.0261 108.13,46.0261 106.5,44.5C 103.708,44.4521 101.875,45.7854 101,48.5C 99.7432,46.2542 97.9099,44.9209 95.5,44.5C 94.8333,44.5 94.5,44.8333 94.5,45.5C 92.283,44.6314 89.9496,44.298 87.5,44.5C 86.596,45.209 86.2627,46.209 86.5,47.5C 86.1667,47.5 85.8333,47.5 85.5,47.5C 81.8333,43.5 78.1667,43.5 74.5,47.5C 74.4142,46.5041 74.7476,45.6708 75.5,45C 71.9733,44.1925 68.6399,44.3592 65.5,45.5C 64.8333,45.5 64.1667,45.5 63.5,45.5C 59.7761,43.8446 56.4427,44.5113 53.5,47.5C 52.6618,47.8417 52.3284,48.5084 52.5,49.5C 50.78,51.6581 49.9467,54.3248 50,57.5C 49.8138,54.9644 49.3138,52.631 48.5,50.5C 48.5,49.8333 48.5,49.1667 48.5,48.5C 46.2286,44.1427 43.062,43.476 39,46.5C 37.9914,48.0249 37.4914,49.6916 37.5,51.5C 36.6043,50.4937 35.9377,50.4937 35.5,51.5C 34.4625,50.0697 33.7959,48.403 33.5,46.5C 33.4346,46.0618 33.6012,45.7284 34,45.5C 34.6667,46.8333 35.3333,48.1667 36,49.5C 36.6853,46.9427 38.1853,45.1094 40.5,44C 47.8261,44.7626 55.1594,44.5959 62.5,43.5C 77.7979,42.5474 93.1312,42.214 108.5,42.5 Z"/></g>
<g><path style="opacity:1" fill="#e0dbcc" d="M 48.5,48.5 C 46.5992,48.5668 44.7659,48.2335 43,47.5C 40.1326,48.9846 39.7993,50.9846 42,53.5C 42.4828,52.552 42.6495,51.552 42.5,50.5C 44.5,50.5 46.5,50.5 48.5,50.5C 48.5,52.5 48.5,54.5 48.5,56.5C 45.8127,56.6641 43.146,56.4974 40.5,56C 38.8588,54.871 37.8588,53.371 37.5,51.5C 37.4914,49.6916 37.9914,48.0249 39,46.5C 43.062,43.476 46.2286,44.1427 48.5,48.5 Z"/></g>
<g><path style="opacity:1" fill="#83c659" d="M 178.5,46.5 C 186.074,45.651 193.74,46.151 201.5,48C 193.78,48.4104 186.114,47.9104 178.5,46.5 Z"/></g>
<g><path style="opacity:1" fill="#102218" d="M 105.5,46.5 C 106.043,46.56 106.376,46.8933 106.5,47.5C 104.336,50.6055 103.003,53.9389 102.5,57.5C 101.944,53.3344 102.944,49.6677 105.5,46.5 Z"/></g>
<g><path style="opacity:1" fill="#e8e2d5" d="M 63.5,45.5 C 63.5,45.8333 63.5,46.1667 63.5,46.5C 61.0428,47.023 58.7094,47.8563 56.5,49C 57.9047,50.2692 59.5714,50.7692 61.5,50.5C 63.0808,52.1417 63.7475,54.1417 63.5,56.5C 60.3966,58.7037 57.0633,59.0371 53.5,57.5C 53.5569,56.391 53.8902,55.391 54.5,54.5C 56.4844,55.6942 58.4844,55.6942 60.5,54.5C 56.448,53.7816 54.1147,51.4483 53.5,47.5C 56.4427,44.5113 59.7761,43.8446 63.5,45.5 Z"/></g>
<g><path style="opacity:1" fill="#e8e3d6" d="M 95.5,44.5 C 97.9099,44.9209 99.7432,46.2542 101,48.5C 101.875,45.7854 103.708,44.4521 106.5,44.5C 106.167,45.1667 105.833,45.8333 105.5,46.5C 102.944,49.6677 101.944,53.3344 102.5,57.5C 101.5,57.5 100.5,57.5 99.5,57.5C 99.6633,55.1432 99.4966,52.8098 99,50.5C 97.5693,48.6365 96.4026,46.6365 95.5,44.5 Z"/></g>
<g><path style="opacity:1" fill="#e2dbc6" d="M 26.5,54.5 C 25.5,55.1667 24.5,55.8333 23.5,56.5C 21.5,56.5 19.5,56.5 17.5,56.5C 17.5,52.5 17.5,48.5 17.5,44.5C 20.6852,44.0196 23.5185,44.6863 26,46.5C 25.5988,49.0613 25.7655,51.7279 26.5,54.5 Z"/></g>
<g><path style="opacity:1" fill="#e3ddcf" d="M 74.5,47.5 C 73.5,47.5 72.5,47.5 71.5,47.5C 71.5,50.5 71.5,53.5 71.5,56.5C 70.5,56.5 69.5,56.5 68.5,56.5C 68.5,53.5 68.5,50.5 68.5,47.5C 67.5,47.5 66.5,47.5 65.5,47.5C 65.5,46.8333 65.5,46.1667 65.5,45.5C 68.6399,44.3592 71.9733,44.1925 75.5,45C 74.7476,45.6708 74.4142,46.5041 74.5,47.5 Z"/></g>
<g><path style="opacity:1" fill="#e6e3d6" d="M 85.5,47.5 C 85.9037,55.2993 82.737,57.6326 76,54.5C 74.7978,52.3225 74.2978,49.9892 74.5,47.5C 78.1667,43.5 81.8333,43.5 85.5,47.5 Z"/></g>
<g><path style="opacity:1" fill="#83c559" d="M 177.5,48.5 C 185.516,49.5022 193.516,50.6689 201.5,52C 195.471,52.4644 189.471,52.131 183.5,51C 180.949,50.9977 178.949,50.1644 177.5,48.5 Z"/></g>
<g><path style="opacity:1" fill="#e6e0d1" d="M 87.5,44.5 C 89.9496,44.298 92.283,44.6314 94.5,45.5C 95.7845,47.9528 95.7845,50.4528 94.5,53C 96.253,57.5299 95.0863,57.6966 91,53.5C 90.5172,54.448 90.3505,55.448 90.5,56.5C 89.5,56.5 88.5,56.5 87.5,56.5C 87.5,52.5 87.5,48.5 87.5,44.5 Z"/></g>
<g><path style="opacity:1" fill="#d7d2c1" d="M 31.5,44.5 C 32.1667,45.1667 32.8333,45.8333 33.5,46.5C 33.7959,48.403 34.4625,50.0697 35.5,51.5C 36.038,53.1172 36.3713,54.7839 36.5,56.5C 34.7231,56.2137 33.0564,55.5471 31.5,54.5C 30.2867,54.7472 29.62,55.4138 29.5,56.5C 28.209,56.7373 27.209,56.404 26.5,55.5C 28.4031,52.0211 30.0698,48.3544 31.5,44.5 Z"/></g>
<g><path style="opacity:1" fill="#8cca66" d="M 177.5,52.5 C 185.182,53.3019 192.849,54.3019 200.5,55.5C 195.182,56.3395 189.848,56.1729 184.5,55C 181.639,55.0302 179.305,54.1969 177.5,52.5 Z"/></g>
<g><path style="opacity:1" fill="#2d5c46" d="M 106.5,44.5 C 108.13,46.0261 108.963,48.0261 109,50.5C 109.499,54.1516 109.665,57.8183 109.5,61.5C 106.61,62.2448 103.61,62.9115 100.5,63.5C 100.5,62.8333 100.5,62.1667 100.5,61.5C 101.806,60.5326 102.473,59.1993 102.5,57.5C 103.003,53.9389 104.336,50.6055 106.5,47.5C 106.376,46.8933 106.043,46.56 105.5,46.5C 105.833,45.8333 106.167,45.1667 106.5,44.5 Z"/></g>
<g><path style="opacity:0.702" fill="#7a9680" d="M 11.5,43.5 C 11.8333,43.5 12.1667,43.5 12.5,43.5C 12.1771,49.69 12.5104,55.69 13.5,61.5C 16.1667,61.5 18.8333,61.5 21.5,61.5C 21.5,61.8333 21.5,62.1667 21.5,62.5C 18.1667,62.5 14.8333,62.5 11.5,62.5C 11.5,56.1667 11.5,49.8333 11.5,43.5 Z"/></g>
<g><path style="opacity:1" fill="#315e45" d="M 87.5,44.5 C 87.5,48.5 87.5,52.5 87.5,56.5C 88.5,56.5 89.5,56.5 90.5,56.5C 89.2825,57.1614 87.9492,57.8281 86.5,58.5C 88.4233,59.3078 90.4233,59.8078 92.5,60C 70.996,60.8294 49.6627,60.6627 28.5,59.5C 34.8421,59.6662 41.1754,59.4995 47.5,59C 48.2524,58.3292 48.5858,57.4959 48.5,56.5C 48.5,54.5 48.5,52.5 48.5,50.5C 49.3138,52.631 49.8138,54.9644 50,57.5C 49.9467,54.3248 50.78,51.6581 52.5,49.5C 52.7959,51.403 53.4625,53.0697 54.5,54.5C 53.8902,55.391 53.5569,56.391 53.5,57.5C 52.9569,57.56 52.6236,57.8933 52.5,58.5C 55.7844,59.657 59.1177,59.8236 62.5,59C 63.2524,58.3292 63.5858,57.4959 63.5,56.5C 63.7475,54.1417 63.0808,52.1417 61.5,50.5C 62.3636,49.3117 63.3636,48.1451 64.5,47C 64.2716,46.6012 63.9382,46.4346 63.5,46.5C 63.5,46.1667 63.5,45.8333 63.5,45.5C 64.1667,45.5 64.8333,45.5 65.5,45.5C 65.5,46.1667 65.5,46.8333 65.5,47.5C 67.1828,51.2584 67.8495,55.2584 67.5,59.5C 69.3904,59.7035 70.8904,59.0368 72,57.5C 72.3925,48.3018 73.3925,48.3018 75,57.5C 76.8083,59.3959 78.975,59.8959 81.5,59C 85.9026,56.3765 87.5692,52.5432 86.5,47.5C 86.2627,46.209 86.596,45.209 87.5,44.5 Z"/></g>
<g><path style="opacity:1" fill="#193022" d="M 95.5,44.5 C 96.4026,46.6365 97.5693,48.6365 99,50.5C 99.4966,52.8098 99.6633,55.1432 99.5,57.5C 100.5,57.5 101.5,57.5 102.5,57.5C 102.473,59.1993 101.806,60.5326 100.5,61.5C 74.1667,61.5 47.8333,61.5 21.5,61.5C 18.8333,61.5 16.1667,61.5 13.5,61.5C 13.7196,56.3185 14.5529,51.3185 16,46.5C 16.4986,50.1516 16.6653,53.8183 16.5,57.5C 19.0593,57.8016 21.3926,57.4682 23.5,56.5C 24.5,55.8333 25.5,55.1667 26.5,54.5C 26.5,54.8333 26.5,55.1667 26.5,55.5C 27.209,56.404 28.209,56.7373 29.5,56.5C 28.6016,57.1577 27.6016,57.8243 26.5,58.5C 26.9569,59.2975 27.6236,59.6309 28.5,59.5C 49.6627,60.6627 70.996,60.8294 92.5,60C 90.4233,59.8078 88.4233,59.3078 86.5,58.5C 87.9492,57.8281 89.2825,57.1614 90.5,56.5C 90.3505,55.448 90.5172,54.448 91,53.5C 95.0863,57.6966 96.253,57.5299 94.5,53C 95.7845,50.4528 95.7845,47.9528 94.5,45.5C 94.5,44.8333 94.8333,44.5 95.5,44.5 Z"/></g>
<g><path style="opacity:1" fill="#111a10" d="M 63.5,56.5 C 63.5858,57.4959 63.2524,58.3292 62.5,59C 59.1177,59.8236 55.7844,59.657 52.5,58.5C 52.6236,57.8933 52.9569,57.56 53.5,57.5C 57.0633,59.0371 60.3966,58.7037 63.5,56.5 Z"/></g>
<g><path style="opacity:1" fill="#141e17" d="M 65.5,47.5 C 66.5,47.5 67.5,47.5 68.5,47.5C 68.5,50.5 68.5,53.5 68.5,56.5C 69.5,56.5 70.5,56.5 71.5,56.5C 71.5,53.5 71.5,50.5 71.5,47.5C 72.5,47.5 73.5,47.5 74.5,47.5C 74.2978,49.9892 74.7978,52.3225 76,54.5C 82.737,57.6326 85.9037,55.2993 85.5,47.5C 85.8333,47.5 86.1667,47.5 86.5,47.5C 87.5692,52.5432 85.9026,56.3765 81.5,59C 78.975,59.8959 76.8083,59.3959 75,57.5C 73.3925,48.3018 72.3925,48.3018 72,57.5C 70.8904,59.0368 69.3904,59.7035 67.5,59.5C 67.8495,55.2584 67.1828,51.2584 65.5,47.5 Z"/></g>
<g><path style="opacity:1" fill="#161b17" d="M 53.5,47.5 C 54.1147,51.4483 56.448,53.7816 60.5,54.5C 58.4844,55.6942 56.4844,55.6942 54.5,54.5C 53.4625,53.0697 52.7959,51.403 52.5,49.5C 52.3284,48.5084 52.6618,47.8417 53.5,47.5 Z"/></g>
<g><path style="opacity:1" fill="#161f18" d="M 37.5,51.5 C 37.8588,53.371 38.8588,54.871 40.5,56C 43.146,56.4974 45.8127,56.6641 48.5,56.5C 48.5858,57.4959 48.2524,58.3292 47.5,59C 41.1754,59.4995 34.8421,59.6662 28.5,59.5C 27.6236,59.6309 26.9569,59.2975 26.5,58.5C 27.6016,57.8243 28.6016,57.1577 29.5,56.5C 29.62,55.4138 30.2867,54.7472 31.5,54.5C 33.0564,55.5471 34.7231,56.2137 36.5,56.5C 36.3713,54.7839 36.038,53.1172 35.5,51.5C 35.9377,50.4937 36.6043,50.4937 37.5,51.5 Z"/></g>
<g><path style="opacity:1" fill="#191915" d="M 20.5,51.5 C 21.675,51.281 22.675,51.6143 23.5,52.5C 21.9483,53.7979 20.9483,53.4646 20.5,51.5 Z"/></g>
<g><path style="opacity:1" fill="#1f2a1f" d="M 78.5,47.5 C 82.35,47.7007 83.35,49.5341 81.5,53C 77.5369,53.1177 76.5369,51.2843 78.5,47.5 Z"/></g>
<g><path style="opacity:1" fill="#1a1a14" d="M 63.5,46.5 C 63.9382,46.4346 64.2716,46.6012 64.5,47C 63.3636,48.1451 62.3636,49.3117 61.5,50.5C 59.5714,50.7692 57.9047,50.2692 56.5,49C 58.7094,47.8563 61.0428,47.023 63.5,46.5 Z"/></g>
<g><path style="opacity:1" fill="#14170e" d="M 48.5,48.5 C 48.5,49.1667 48.5,49.8333 48.5,50.5C 46.5,50.5 44.5,50.5 42.5,50.5C 42.6495,51.552 42.4828,52.552 42,53.5C 39.7993,50.9846 40.1326,48.9846 43,47.5C 44.7659,48.2335 46.5992,48.5668 48.5,48.5 Z"/></g>
<g><path style="opacity:1" fill="#373b37" d="M 20.5,47.5 C 22.337,47.6395 22.6704,48.3061 21.5,49.5C 20.7025,49.0431 20.3691,48.3764 20.5,47.5 Z"/></g>
<g><path style="opacity:1" fill="#15100d" d="M 90.5,47.5 C 92.9701,48.3603 93.1368,49.6936 91,51.5C 90.51,50.2068 90.3433,48.8734 90.5,47.5 Z"/></g>
<g><path style="opacity:0.522" fill="#d6d6d1" d="M 100.5,63.5 C 100.573,65.0269 99.9063,66.0269 98.5,66.5C 98.5,66.1667 98.5,65.8333 98.5,65.5C 98.8333,64.5 99.5,63.8333 100.5,63.5 Z"/></g>
<g><path style="opacity:0.506" fill="#d6d5d1" d="M 98.5,66.5 C 98.573,68.0269 97.9063,69.0269 96.5,69.5C 96.427,67.9731 97.0937,66.9731 98.5,66.5 Z"/></g>
<g><path style="opacity:0.86" fill="#73bf44" d="M 146.5,68.5 C 147.568,69.4345 148.901,69.7678 150.5,69.5C 150.5,74.5 150.5,79.5 150.5,84.5C 148.533,84.2606 146.699,84.5939 145,85.5C 144.833,82.6667 144.667,79.8333 144.5,77C 144.519,73.7485 145.186,70.9151 146.5,68.5 Z"/></g>
<g><path style="opacity:1" fill="#5c5337" d="M 98.5,65.5 C 98.5,65.8333 98.5,66.1667 98.5,66.5C 97.0937,66.9731 96.427,67.9731 96.5,69.5C 95.2058,70.2899 94.0391,71.2899 93,72.5C 93.0275,70.5826 93.8608,68.916 95.5,67.5C 95.3764,66.8933 95.0431,66.56 94.5,66.5C 95.4033,64.3796 96.7367,64.0462 98.5,65.5 Z"/></g>
<g><path style="opacity:0.999" fill="#3ead5c" d="M 198.5,73.5 C 201.24,75.9003 202.073,78.9003 201,82.5C 197.078,84.3124 192.911,84.979 188.5,84.5C 188.279,81.7212 188.612,79.0545 189.5,76.5C 189.5,74.8333 189.5,73.1667 189.5,71.5C 189.5,71.1667 189.5,70.8333 189.5,70.5C 190.167,70.5 190.5,70.1667 190.5,69.5C 193.073,68.3552 195.739,67.8552 198.5,68C 201.139,70.008 201.139,71.8413 198.5,73.5 Z M 198.5,73.5 C 195.188,73.735 194.355,72.735 196,70.5C 197.31,71.1301 198.144,72.1301 198.5,73.5 Z M 191.5,78.5 C 193.423,78.795 195.09,79.6283 196.5,81C 193.623,83.0412 191.957,82.2079 191.5,78.5 Z"/></g>
<g><path style="opacity:1" fill="#aaa08c" d="M 94.5,66.5 C 95.0431,66.56 95.3764,66.8933 95.5,67.5C 93.8608,68.916 93.0275,70.5826 93,72.5C 94.0391,71.2899 95.2058,70.2899 96.5,69.5C 95.1667,72.8333 92.8333,75.1667 89.5,76.5C 90.8333,75.5 90.8333,74.5 89.5,73.5C 90.7536,70.9066 92.4202,68.5732 94.5,66.5 Z"/></g>
<g><path style="opacity:1" fill="#0e1612" d="M 21.5,61.5 C 47.8333,61.5 74.1667,61.5 100.5,61.5C 100.5,62.1667 100.5,62.8333 100.5,63.5C 99.5,63.8333 98.8333,64.5 98.5,65.5C 96.7367,64.0462 95.4033,64.3796 94.5,66.5C 92.4202,68.5732 90.7536,70.9066 89.5,73.5C 85.8558,76.3263 81.8558,78.6596 77.5,80.5C 73.75,81.6137 70.0833,82.6137 66.5,83.5C 49.7151,85.0217 36.3817,79.0217 26.5,65.5C 25.0153,66.4328 23.6819,66.0995 22.5,64.5C 21.6618,64.1583 21.3284,63.4916 21.5,62.5C 21.5,62.1667 21.5,61.8333 21.5,61.5 Z"/></g>
<g><path style="opacity:1" fill="#8fb069" d="M 35.5,72.5 C 36.6216,71.8442 37.9549,71.5108 39.5,71.5C 41.8825,71.361 43.8825,72.0277 45.5,73.5C 41.8979,75.1179 38.5645,74.7846 35.5,72.5 Z"/></g>
<g><path style="opacity:1" fill="#38462e" d="M 84.5,66.5 C 86.1667,66.5 87.8333,66.5 89.5,66.5C 87.5073,68.1632 85.1739,69.3299 82.5,70C 83.8333,70.3333 85.1667,70.6667 86.5,71C 83.1204,71.3386 79.7871,71.8386 76.5,72.5C 76.5,72.1667 76.5,71.8333 76.5,71.5C 76.3894,69.3523 77.056,69.019 78.5,70.5C 80.7106,69.3405 82.7106,68.0072 84.5,66.5 Z"/></g>
<g><path style="opacity:1" fill="#2e3d25" d="M 47.5,73.5 C 46.8333,73.5 46.1667,73.5 45.5,73.5C 43.8825,72.0277 41.8825,71.361 39.5,71.5C 37.9549,71.5108 36.6216,71.8442 35.5,72.5C 34.6618,72.1583 34.3284,71.4916 34.5,70.5C 36.1992,70.6602 37.8659,70.4935 39.5,70C 37.5405,69.0691 35.5405,68.2357 33.5,67.5C 32.479,66.9984 32.3123,66.3317 33,65.5C 34.439,67.0139 35.939,67.3473 37.5,66.5C 39.5,67.8333 41.5,69.1667 43.5,70.5C 44.086,70.2907 44.586,69.9574 45,69.5C 45.6622,70.9839 46.4955,72.3172 47.5,73.5 Z"/></g>
<g><path style="opacity:1" fill="#99b96f" d="M 89.5,66.5 C 90.1667,66.5 90.5,66.8333 90.5,67.5C 87.798,73.847 83.1313,75.847 76.5,73.5C 76.5,73.1667 76.5,72.8333 76.5,72.5C 79.7871,71.8386 83.1204,71.3386 86.5,71C 85.1667,70.6667 83.8333,70.3333 82.5,70C 85.1739,69.3299 87.5073,68.1632 89.5,66.5 Z"/></g>
<g><path style="opacity:1" fill="#ebe3cd" d="M 58.5,62.5 C 59.4614,64.2646 59.7947,66.2646 59.5,68.5C 60.675,68.281 61.675,68.6143 62.5,69.5C 61.3112,70.4287 59.9778,70.762 58.5,70.5C 58.5,67.8333 58.5,65.1667 58.5,62.5 Z"/></g>
<g><path style="opacity:1" fill="#cfc9bb" d="M 52.5,62.5 C 53.9971,64.5619 55.3304,66.8952 56.5,69.5C 55.3112,70.4287 53.9778,70.762 52.5,70.5C 52.5,67.8333 52.5,65.1667 52.5,62.5 Z"/></g>
<g><path style="opacity:1" fill="#9fbc72" d="M 84.5,66.5 C 82.7106,68.0072 80.7106,69.3405 78.5,70.5C 77.056,69.019 76.3894,69.3523 76.5,71.5C 74.5038,69.0831 73.5038,69.7498 73.5,73.5C 72.1054,75.0544 71.4387,74.721 71.5,72.5C 71.7538,70.5828 72.7538,69.2495 74.5,68.5C 77.6348,66.9767 80.9682,66.31 84.5,66.5 Z"/></g>
<g><path style="opacity:1" fill="#b1bd96" d="M 90.5,67.5 C 90.5,66.8333 90.1667,66.5 89.5,66.5C 87.8333,66.5 86.1667,66.5 84.5,66.5C 80.9682,66.31 77.6348,66.9767 74.5,68.5C 77.5104,65.1287 81.3437,63.7954 86,64.5C 88.1667,64.8333 90.3333,65.1667 92.5,65.5C 92.1445,66.5223 91.4778,67.189 90.5,67.5 Z"/></g>
<g><path style="opacity:1" fill="#d7cfbd" d="M 65.5,62.5 C 70.8333,63.1667 70.8333,63.8333 65.5,64.5C 65.3249,67.3289 66.6582,68.9955 69.5,69.5C 63.4025,70.214 62.0692,67.8807 65.5,62.5 Z"/></g>
<g><path style="opacity:1" fill="#a3b780" d="M 47.5,73.5 C 46.4955,72.3172 45.6622,70.9839 45,69.5C 44.586,69.9574 44.086,70.2907 43.5,70.5C 41.5,69.1667 39.5,67.8333 37.5,66.5C 35.939,67.3473 34.439,67.0139 33,65.5C 32.3123,66.3317 32.479,66.9984 33.5,67.5C 35.5405,68.2357 37.5405,69.0691 39.5,70C 37.8659,70.4935 36.1992,70.6602 34.5,70.5C 32.359,69.1882 30.6924,67.3549 29.5,65C 37.4972,62.955 44.3306,64.7883 50,70.5C 51.1451,73.8872 50.3117,74.8872 47.5,73.5 Z"/></g>
<g><path style="opacity:1" fill="#a7bf9e" d="M 59.5,74.5 C 63.9764,74.8003 65.3097,76.9669 63.5,81C 61.5676,81.1379 59.7343,80.6379 58,79.5C 57.3123,78.6683 57.479,78.0016 58.5,77.5C 59.623,79.289 60.9564,79.6224 62.5,78.5C 61.1738,77.3578 60.1738,76.0245 59.5,74.5 Z"/></g>
<g><path style="opacity:1" fill="#6c6551" d="M 22.5,64.5 C 23.6819,66.0995 25.0153,66.4328 26.5,65.5C 36.3817,79.0217 49.7151,85.0217 66.5,83.5C 67.552,83.3505 68.552,83.5172 69.5,84C 61.8869,84.9445 54.3869,84.4445 47,82.5C 46.5,82.6667 46,82.8333 45.5,83C 46.4158,83.2784 47.0825,83.7784 47.5,84.5C 36.2113,81.5463 27.8779,74.8796 22.5,64.5 Z"/></g>
<g><path style="opacity:1" fill="#6e8f53" d="M 45.5,73.5 C 46.1667,73.5 46.8333,73.5 47.5,73.5C 49.978,75.8025 52.6447,77.9692 55.5,80C 53.4971,79.5808 51.4971,78.7474 49.5,77.5C 46.5891,78.9835 43.9225,78.6502 41.5,76.5C 43.3316,75.9432 44.6649,74.9432 45.5,73.5 Z"/></g>
<g><path style="opacity:1" fill="#6e8e54" d="M 76.5,71.5 C 76.5,71.8333 76.5,72.1667 76.5,72.5C 76.5,72.8333 76.5,73.1667 76.5,73.5C 77.3351,74.9432 78.6684,75.9432 80.5,76.5C 78.0775,78.6502 75.4109,78.9835 72.5,77.5C 70.5029,78.7474 68.5029,79.5808 66.5,80C 68.6572,78.0879 70.9906,76.4213 73.5,75C 74.7383,74.31 74.7383,73.81 73.5,73.5C 73.5038,69.7498 74.5038,69.0831 76.5,71.5 Z"/></g>
<g><path style="opacity:1" fill="#786f59" d="M 89.5,73.5 C 90.8333,74.5 90.8333,75.5 89.5,76.5C 87.7036,78.9 85.3702,80.5667 82.5,81.5C 83.463,80.6365 83.463,79.9698 82.5,79.5C 81.1667,80.1667 79.8333,80.8333 78.5,81.5C 77.8933,81.3764 77.56,81.0431 77.5,80.5C 81.8558,78.6596 85.8558,76.3263 89.5,73.5 Z"/></g>
<g><path style="opacity:0.998" fill="#80c457" d="M 190.5,69.5 C 190.5,70.1667 190.167,70.5 189.5,70.5C 188.167,70.8333 188.167,71.1667 189.5,71.5C 189.5,73.1667 189.5,74.8333 189.5,76.5C 188.71,75.3915 188.21,74.0581 188,72.5C 185.908,74.3459 184.574,76.6792 184,79.5C 183.25,80.1258 182.416,80.6258 181.5,81C 186.228,83.2219 186.561,85.8886 182.5,89C 179.5,89.6667 176.5,89.6667 173.5,89C 172.783,87.3476 172.45,85.8476 172.5,84.5C 170.356,85.9535 168.523,85.6201 167,83.5C 164.368,86.1924 162.034,85.859 160,82.5C 157.189,85.1634 154.022,85.83 150.5,84.5C 150.5,79.5 150.5,74.5 150.5,69.5C 148.901,69.7678 147.568,69.4345 146.5,68.5C 150.637,68.1463 154.637,68.6463 158.5,70C 159.935,72.2672 159.602,74.2672 157.5,76C 159.333,76.5 160.5,77.6667 161,79.5C 162.407,73.6107 165.907,71.7773 171.5,74C 172.274,76.405 172.774,78.905 173,81.5C 173.5,81 174,80.5 174.5,80C 172.67,75.2734 174.337,73.1068 179.5,73.5C 178.965,70.7615 179.965,68.9282 182.5,68C 185.407,67.2815 188.074,67.7815 190.5,69.5 Z M 151.5,77.5 C 153.561,78.7514 153.894,80.4181 152.5,82.5C 151.548,80.9547 151.215,79.288 151.5,77.5 Z"/></g>
<g><path style="opacity:1" fill="#48b063" d="M 205.5,70.5 C 210.406,71.5138 211.406,74.0138 208.5,78C 208.833,78.8333 209.167,79.6667 209.5,80.5C 210.422,76.3153 212.588,72.982 216,70.5C 218.333,71.5 220,73.1667 221,75.5C 222.113,74.2889 223.28,74.2889 224.5,75.5C 226.001,74.2485 227.668,73.2485 229.5,72.5C 235.131,72.8951 241.131,72.8951 247.5,72.5C 245.851,77.2965 243.518,81.7965 240.5,86C 237.333,86.8333 236.167,85.6667 237,82.5C 238.067,81.8095 239.234,81.3095 240.5,81C 239.292,78.7497 237.959,76.583 236.5,74.5C 235.841,77.8237 233.841,79.1571 230.5,78.5C 230.328,80.4918 230.995,82.1585 232.5,83.5C 231,83.8333 229.5,84.1667 228,84.5C 226.019,84.3708 224.353,83.7042 223,82.5C 221.341,83.8312 219.674,85.1646 218,86.5C 215.677,84.848 213.344,83.1813 211,81.5C 209.136,84.2072 206.636,85.0405 203.5,84C 202.632,80.2328 201.965,76.3994 201.5,72.5C 203.38,72.7709 204.713,72.1042 205.5,70.5 Z M 218.5,75.5 C 219.451,76.9187 219.784,78.5853 219.5,80.5C 217.774,80.8146 216.107,80.9813 214.5,81C 214.982,79.9916 215.148,78.825 215,77.5C 216.552,77.9889 217.719,77.3223 218.5,75.5 Z"/></g>
<g><path style="opacity:0.055" fill="#d6d5d0" d="M 80.5,82.5 C 77.9164,84.4725 74.9164,85.4725 71.5,85.5C 74.2154,83.9281 77.2154,82.9281 80.5,82.5 Z"/></g>
<g><path style="opacity:1" fill="#413a29" d="M 82.5,81.5 C 82.1583,82.3382 81.4916,82.6716 80.5,82.5C 77.2154,82.9281 74.2154,83.9281 71.5,85.5C 63.4659,85.6982 55.4659,85.3649 47.5,84.5C 47.0825,83.7784 46.4158,83.2784 45.5,83C 46,82.8333 46.5,82.6667 47,82.5C 54.3869,84.4445 61.8869,84.9445 69.5,84C 68.552,83.5172 67.552,83.3505 66.5,83.5C 70.0833,82.6137 73.75,81.6137 77.5,80.5C 77.56,81.0431 77.8933,81.3764 78.5,81.5C 79.8333,80.8333 81.1667,80.1667 82.5,79.5C 83.463,79.9698 83.463,80.6365 82.5,81.5 Z"/></g>
<g><path style="opacity:0.949" fill="#8a887f" d="M 47.5,84.5 C 55.4659,85.3649 63.4659,85.6982 71.5,85.5C 64.6791,86.6546 57.6791,86.8213 50.5,86C 49.2625,85.7679 48.2625,85.2679 47.5,84.5 Z"/></g>
</svg>
